# This file uses centimeters as units for non-parametric coordinates.

g default
v -0.150000 1.424256 -0.104491
v -0.150000 0.244887 -0.104491
v 0.150000 0.244887 -0.104491
v 0.150000 1.424256 -0.104491
v -0.150000 1.424256 -0.404491
v -0.150000 0.244887 -0.404491
v -0.316084 0.244887 -0.081430
v 0.172253 0.244887 -0.081430
v 0.150000 0.244887 -0.404491
v 0.150000 1.424256 -0.404491
v -0.316084 0.244887 -0.427552
v -0.316084 -0.007788 -0.081430
v 0.172253 -0.007788 -0.081430
v 0.172253 0.244887 -0.427552
v -0.316084 -0.007788 -0.427552
v 0.172253 -0.007788 -0.427552
v -0.348493 2.994865 0.500000
v -0.348493 1.424256 0.500000
v 0.348493 1.424256 0.500000
v 0.348493 2.994865 0.500000
v -0.348493 2.994865 -0.500000
v 0.348493 2.994865 -0.500000
v -0.348493 1.424256 -0.500000
v -0.150000 1.424256 0.099759
v -0.150000 1.424256 0.399759
v 0.150000 1.424256 0.399759
v 0.150000 1.424256 0.099759
v 0.348493 1.424256 -0.500000
v -0.150000 0.244887 0.099759
v -0.150000 0.244887 0.399759
v 0.150000 0.244887 0.399759
v 0.150000 0.244887 0.099759
v -0.316084 0.244887 0.076698
v -0.316084 0.244887 0.422820
v 0.172253 0.244887 0.422820
v 0.172253 0.244887 0.076698
v -0.316084 -0.007788 0.076698
v -0.316084 -0.007788 0.422820
v 0.172253 -0.007788 0.422820
v 0.172253 -0.007788 0.076698
v -0.384350 2.996419 0.384350
v 0.384350 2.996419 0.384350
v 0.384350 3.765120 0.384350
v -0.384350 3.765120 0.384350
v -0.384350 2.996419 -0.384350
v -0.384350 3.765120 -0.384350
v 0.384350 2.996419 -0.384350
v 0.384350 3.765120 -0.384350
v -0.175621 1.385861 -0.502254
v 0.175621 1.385861 -0.502254
v 0.175621 2.934646 -0.502254
v -0.175621 2.934646 -0.502254
v -0.175621 1.385861 -0.853495
v -0.175621 2.934646 -0.853495
v 0.175621 1.385861 -0.853495
v 0.175621 2.934646 -0.853495
v -0.175621 1.385861 0.856601
v 0.175621 1.385861 0.856601
v 0.175621 2.934646 0.856601
v -0.175621 2.934646 0.856601
v -0.175621 1.385861 0.505359
v -0.175621 2.934646 0.505359
v 0.175621 1.385861 0.505359
v 0.175621 2.934646 0.505359
vt 0.058738 0.456289
vt 0.058738 0.086701
vt 0.152752 0.086701
vt 0.152752 0.456289
vt 0.275176 0.456308
vt 0.275176 0.086689
vt 0.181155 0.086689
vt 0.181155 0.456308
vt 0.293367 0.008848
vt 0.293367 0.161895
vt 0.300595 0.154921
vt 0.300595 0.060899
vt 0.181155 0.456308
vt 0.181155 0.086689
vt 0.275176 0.086689
vt 0.275176 0.456308
vt 0.152752 0.456289
vt 0.152752 0.086701
vt 0.058738 0.086701
vt 0.058738 0.456289
vt 0.401843 0.008848
vt 0.394616 0.060899
vt 0.006691 0.086701
vt 0.006691 0.007518
vt 0.159725 0.007518
vt 0.159725 0.086701
vt 0.401843 0.161895
vt 0.394616 0.154921
vt 0.282404 0.086689
vt 0.282404 0.007499
vt 0.173927 0.007499
vt 0.173927 0.086689
vt 0.293367 0.181655
vt 0.401843 0.181655
vt 0.401843 0.334702
vt 0.293367 0.334702
vt 0.173927 0.086689
vt 0.173927 0.007499
vt 0.282404 0.007499
vt 0.282404 0.086689
vt 0.006691 0.007518
vt 0.006691 0.086701
vt 0.159725 0.086701
vt 0.159725 0.007518
vt 0.305366 0.986051
vt 0.305366 0.538406
vt 0.504016 0.538406
vt 0.504016 0.986051
vt 0.508848 0.369636
vt 0.298411 0.369636
vt 0.298411 0.516308
vt 0.508848 0.516308
vt 0.296441 0.986051
vt 0.296441 0.538406
vt 0.011428 0.538406
vt 0.011428 0.986051
vt 0.298411 0.369636
vt 0.382636 0.411406
vt 0.319505 0.411406
vt 0.319505 0.474537
vt 0.382636 0.474537
vt 0.508848 0.516308
vt 0.298411 0.516308
vt 0.508848 0.369636
vt 0.488750 0.411406
vt 0.425618 0.411406
vt 0.425618 0.474537
vt 0.488750 0.474537
vt 0.011428 0.986051
vt 0.011428 0.538406
vt 0.296441 0.538406
vt 0.296441 0.986051
vt 0.305366 0.538406
vt 0.305366 0.986051
vt 0.504016 0.986051
vt 0.504016 0.538406
vt 0.275176 0.456308
vt 0.275176 0.086689
vt 0.181155 0.086689
vt 0.181155 0.456308
vt 0.058738 0.456289
vt 0.058738 0.086701
vt 0.152752 0.086701
vt 0.152752 0.456289
vt 0.181155 0.456308
vt 0.181155 0.086689
vt 0.275176 0.086689
vt 0.275176 0.456308
vt 0.152752 0.456289
vt 0.152752 0.086701
vt 0.058738 0.086701
vt 0.058738 0.456289
vt 0.401843 0.008848
vt 0.293367 0.008848
vt 0.300595 0.060899
vt 0.394616 0.060899
vt 0.293367 0.161895
vt 0.300595 0.154921
vt 0.401843 0.161895
vt 0.394616 0.154921
vt 0.282404 0.086689
vt 0.282404 0.007499
vt 0.173927 0.007499
vt 0.173927 0.086689
vt 0.006691 0.086701
vt 0.006691 0.007518
vt 0.159725 0.007518
vt 0.159725 0.086701
vt 0.173927 0.086689
vt 0.173927 0.007499
vt 0.282404 0.007499
vt 0.282404 0.086689
vt 0.006691 0.007518
vt 0.006691 0.086701
vt 0.159725 0.086701
vt 0.159725 0.007518
vt 0.293367 0.181655
vt 0.401843 0.181655
vt 0.401843 0.334702
vt 0.293367 0.334702
vt 0.799770 0.206669
vt 0.985279 0.206669
vt 0.985279 0.392178
vt 0.799770 0.392178
vt 0.782595 0.401586
vt 0.597086 0.401586
vt 0.597086 0.587095
vt 0.782595 0.587095
vt 0.985423 0.010216
vt 0.985423 0.195725
vt 0.799915 0.195725
vt 0.799915 0.010216
vt 0.801610 0.406155
vt 0.987119 0.406155
vt 0.987119 0.591664
vt 0.801610 0.591664
vt 0.599806 0.203014
vt 0.599806 0.388523
vt 0.785315 0.388523
vt 0.785315 0.203014
vt 0.799770 0.392178
vt 0.985279 0.392178
vt 0.985279 0.206669
vt 0.799770 0.206669
vt 0.877486 0.606600
vt 0.962973 0.606600
vt 0.962973 0.983554
vt 0.877486 0.983554
vt 0.868395 0.603734
vt 0.782907 0.603734
vt 0.782907 0.980688
vt 0.868395 0.980688
vt 0.683160 0.021957
vt 0.683160 0.095872
vt 0.609245 0.095872
vt 0.609245 0.021957
vt 0.782907 0.603734
vt 0.868395 0.603734
vt 0.868395 0.980688
vt 0.782907 0.980688
vt 0.609245 0.021957
vt 0.609245 0.095872
vt 0.683160 0.095872
vt 0.683160 0.021957
vt 0.877486 0.983554
vt 0.962973 0.983554
vt 0.962973 0.606600
vt 0.877486 0.606600
vt 0.877486 0.606600
vt 0.962973 0.606600
vt 0.962973 0.983554
vt 0.877486 0.983554
vt 0.868395 0.603734
vt 0.782907 0.603734
vt 0.782907 0.980688
vt 0.868395 0.980688
vt 0.683160 0.021957
vt 0.683160 0.095872
vt 0.609245 0.095872
vt 0.609245 0.021957
vt 0.782907 0.603734
vt 0.868395 0.603734
vt 0.868395 0.980688
vt 0.782907 0.980688
vt 0.609245 0.021957
vt 0.609245 0.095872
vt 0.683160 0.095872
vt 0.683160 0.021957
vt 0.877486 0.983554
vt 0.962973 0.983554
vt 0.962973 0.606600
vt 0.877486 0.606600
vn 0.000000 0.000000 1.000000
vn 0.000000 0.000000 1.000000
vn 0.000000 0.000000 1.000000
vn 0.000000 0.000000 1.000000
vn -1.000000 0.000000 0.000000
vn -1.000000 0.000000 0.000000
vn -1.000000 0.000000 0.000000
vn -1.000000 0.000000 0.000000
vn 0.000000 1.000000 0.000000
vn 0.000000 1.000000 -0.000001
vn 0.000000 1.000000 0.000000
vn 0.000000 1.000000 -0.000001
vn 1.000000 0.000000 0.000000
vn 1.000000 0.000000 0.000000
vn 1.000000 0.000000 0.000000
vn 1.000000 0.000000 0.000000
vn 0.000000 0.000000 -1.000000
vn 0.000000 0.000000 -1.000000
vn 0.000000 0.000000 -1.000000
vn 0.000000 0.000000 -1.000000
vn 0.000000 1.000000 0.000000
vn 0.000000 1.000000 0.000000
vn 0.000000 0.000000 1.000000
vn 0.000000 0.000000 1.000000
vn 0.000000 0.000000 1.000000
vn 0.000000 0.000000 1.000000
vn 0.000000 1.000000 0.000001
vn 0.000000 1.000000 0.000000
vn -1.000000 0.000000 0.000000
vn -1.000000 0.000000 0.000000
vn -1.000000 0.000000 0.000000
vn -1.000000 0.000000 0.000000
vn 0.000000 -1.000000 0.000000
vn 0.000000 -1.000000 0.000000
vn 0.000000 -1.000000 0.000000
vn 0.000000 -1.000000 0.000000
vn 1.000000 0.000000 0.000000
vn 1.000000 0.000000 0.000000
vn 1.000000 0.000000 0.000000
vn 1.000000 0.000000 0.000000
vn 0.000000 0.000000 -1.000000
vn 0.000000 0.000000 -1.000000
vn 0.000000 0.000000 -1.000000
vn 0.000000 0.000000 -1.000000
vn 0.000000 0.000000 1.000000
vn 0.000000 0.000000 1.000000
vn 0.000000 0.000000 1.000000
vn 0.000000 0.000000 1.000000
vn 0.000000 1.000000 0.000000
vn 0.000000 1.000000 0.000000
vn 0.000000 1.000000 0.000000
vn 0.000000 1.000000 0.000000
vn -1.000000 0.000000 0.000000
vn -1.000000 0.000000 0.000000
vn -1.000000 0.000000 0.000000
vn -1.000000 0.000000 0.000000
vn 0.000000 -1.000000 0.000000
vn 0.000000 -1.000000 -0.000000
vn 0.000000 -1.000000 0.000000
vn 0.000000 -1.000000 -0.000001
vn 0.000000 -1.000000 0.000000
vn 0.000000 -1.000000 -0.000000
vn 0.000000 -1.000000 0.000000
vn 0.000000 -1.000000 0.000000
vn 0.000000 -1.000000 0.000000
vn 0.000000 -1.000000 0.000000
vn 0.000000 -1.000000 0.000000
vn 0.000000 -1.000000 0.000001
vn 1.000000 0.000000 0.000000
vn 1.000000 0.000000 0.000000
vn 1.000000 0.000000 0.000000
vn 1.000000 0.000000 0.000000
vn 0.000000 0.000000 -1.000000
vn 0.000000 0.000000 -1.000000
vn 0.000000 0.000000 -1.000000
vn 0.000000 0.000000 -1.000000
vn -1.000000 0.000000 0.000000
vn -1.000000 0.000000 0.000000
vn -1.000000 0.000000 0.000000
vn -1.000000 0.000000 0.000000
vn 0.000000 0.000000 1.000000
vn 0.000000 0.000000 1.000000
vn 0.000000 0.000000 1.000000
vn 0.000000 0.000000 1.000000
vn 1.000000 0.000000 0.000000
vn 1.000000 0.000000 0.000000
vn 1.000000 0.000000 0.000000
vn 1.000000 0.000000 0.000000
vn 0.000000 0.000000 -1.000000
vn 0.000000 0.000000 -1.000000
vn 0.000000 0.000000 -1.000000
vn 0.000000 0.000000 -1.000000
vn 0.000000 1.000000 0.000000
vn 0.000000 1.000000 0.000000
vn 0.000000 1.000000 0.000000
vn 0.000000 1.000000 0.000000
vn 0.000000 1.000000 -0.000001
vn 0.000000 1.000000 -0.000001
vn 0.000000 1.000000 0.000001
vn 0.000000 1.000000 0.000000
vn -1.000000 0.000000 0.000000
vn -1.000000 0.000000 0.000000
vn -1.000000 0.000000 0.000000
vn -1.000000 0.000000 0.000000
vn 0.000000 0.000000 1.000000
vn 0.000000 0.000000 1.000000
vn 0.000000 0.000000 1.000000
vn 0.000000 0.000000 1.000000
vn 1.000000 0.000000 0.000000
vn 1.000000 0.000000 0.000000
vn 1.000000 0.000000 0.000000
vn 1.000000 0.000000 0.000000
vn 0.000000 0.000000 -1.000000
vn 0.000000 0.000000 -1.000000
vn 0.000000 0.000000 -1.000000
vn 0.000000 0.000000 -1.000000
vn 0.000000 -1.000000 0.000000
vn 0.000000 -1.000000 0.000000
vn 0.000000 -1.000000 0.000000
vn 0.000000 -1.000000 0.000000
vn 0.000000 0.000000 1.000000
vn 0.000000 0.000000 1.000000
vn 0.000000 0.000000 1.000000
vn 0.000000 0.000000 1.000000
vn -1.000000 0.000000 0.000000
vn -1.000000 0.000000 0.000000
vn -1.000000 0.000000 0.000000
vn -1.000000 0.000000 0.000000
vn 0.000000 -1.000000 0.000000
vn 0.000000 -1.000000 0.000000
vn 0.000000 -1.000000 0.000000
vn 0.000000 -1.000000 0.000000
vn 1.000000 0.000000 0.000000
vn 1.000000 0.000000 0.000000
vn 1.000000 0.000000 0.000000
vn 1.000000 0.000000 0.000000
vn 0.000000 1.000000 0.000000
vn 0.000000 1.000000 0.000000
vn 0.000000 1.000000 0.000000
vn 0.000000 1.000000 0.000000
vn 0.000000 0.000000 -1.000000
vn 0.000000 0.000000 -1.000000
vn 0.000000 0.000000 -1.000000
vn 0.000000 0.000000 -1.000000
vn 0.000000 0.000000 1.000000
vn 0.000000 0.000000 1.000000
vn 0.000000 0.000000 1.000000
vn 0.000000 0.000000 1.000000
vn -1.000000 0.000000 0.000000
vn -1.000000 0.000000 0.000000
vn -1.000000 0.000000 0.000000
vn -1.000000 0.000000 0.000000
vn 0.000000 -1.000000 0.000000
vn 0.000000 -1.000000 0.000000
vn 0.000000 -1.000000 0.000000
vn 0.000000 -1.000000 0.000000
vn 1.000000 0.000000 0.000000
vn 1.000000 0.000000 0.000000
vn 1.000000 0.000000 0.000000
vn 1.000000 0.000000 0.000000
vn 0.000000 1.000000 0.000000
vn 0.000000 1.000000 0.000000
vn 0.000000 1.000000 0.000000
vn 0.000000 1.000000 0.000000
vn 0.000000 0.000000 -1.000000
vn 0.000000 0.000000 -1.000000
vn 0.000000 0.000000 -1.000000
vn 0.000000 0.000000 -1.000000
vn 0.000000 0.000000 1.000000
vn 0.000000 0.000000 1.000000
vn 0.000000 0.000000 1.000000
vn 0.000000 0.000000 1.000000
vn -1.000000 0.000000 0.000000
vn -1.000000 0.000000 0.000000
vn -1.000000 0.000000 0.000000
vn -1.000000 0.000000 0.000000
vn 0.000000 -1.000000 0.000000
vn 0.000000 -1.000000 0.000000
vn 0.000000 -1.000000 0.000000
vn 0.000000 -1.000000 0.000000
vn 1.000000 0.000000 0.000000
vn 1.000000 0.000000 0.000000
vn 1.000000 0.000000 0.000000
vn 1.000000 0.000000 0.000000
vn 0.000000 1.000000 0.000000
vn 0.000000 1.000000 0.000000
vn 0.000000 1.000000 0.000000
vn 0.000000 1.000000 0.000000
vn 0.000000 0.000000 -1.000000
vn 0.000000 0.000000 -1.000000
vn 0.000000 0.000000 -1.000000
vn 0.000000 0.000000 -1.000000
g player
f 4/4/1 1/1/2 3/3/3
f 3/3/3 1/1/2 2/2/4
f 1/8/5 5/5/6 2/7/7
f 2/7/7 5/5/6 6/6/8
f 7/9/9 8/10/10 2/12/11
f 2/12/11 8/10/10 3/11/12
f 10/16/13 4/13/14 9/15/15
f 9/15/15 4/13/14 3/14/16
f 5/20/17 10/17/18 6/19/19
f 6/19/19 10/17/18 9/18/20
f 6/22/21 11/21/22 2/12/11
f 2/12/11 11/21/22 7/9/9
f 8/26/23 7/23/24 13/25/25
f 13/25/25 7/23/24 12/24/26
f 9/28/27 3/11/12 14/27/28
f 14/27/28 3/11/12 8/10/10
f 11/21/22 6/22/21 14/27/28
f 14/27/28 6/22/21 9/28/27
f 7/32/29 11/29/30 12/31/31
f 12/31/31 11/29/30 15/30/32
f 13/36/33 12/33/34 16/35/35
f 16/35/35 12/33/34 15/34/36
f 14/40/37 8/37/38 16/39/39
f 16/39/39 8/37/38 13/38/40
f 16/44/41 15/41/42 14/43/43
f 14/43/43 15/41/42 11/42/44
f 20/48/45 17/45/46 19/47/47
f 19/47/47 17/45/46 18/46/48
f 22/52/49 21/49/50 20/51/51
f 20/51/51 21/49/50 17/50/52
f 17/56/53 21/53/54 18/55/55
f 18/55/55 21/53/54 23/54/56
f 28/62/57 19/63/58 27/61/59
f 27/61/59 19/63/58 26/60/60
f 25/59/61 18/57/62 24/58/63
f 24/58/63 18/57/62 23/64/64
f 19/63/58 18/57/62 26/60/60
f 26/60/60 18/57/62 25/59/61
f 4/67/65 27/61/59 1/66/66
f 1/66/66 27/61/59 24/58/63
f 24/58/63 23/64/64 1/66/66
f 1/66/66 23/64/64 5/65/67
f 27/61/59 4/67/65 28/62/57
f 28/62/57 4/67/65 10/68/68
f 5/65/67 23/64/64 10/68/68
f 10/68/68 23/64/64 28/62/57
f 22/72/69 20/69/70 28/71/71
f 28/71/71 20/69/70 19/70/72
f 28/76/73 23/73/74 22/75/75
f 22/75/75 23/73/74 21/74/76
f 25/80/77 24/77/78 30/79/79
f 30/79/79 24/77/78 29/78/80
f 26/84/81 25/81/82 31/83/83
f 31/83/83 25/81/82 30/82/84
f 27/88/85 26/85/86 32/87/87
f 32/87/87 26/85/86 31/86/88
f 24/92/89 27/89/90 29/91/91
f 29/91/91 27/89/90 32/90/92
f 29/96/93 33/93/94 30/95/95
f 30/95/95 33/93/94 34/94/96
f 34/94/96 35/97/97 30/95/95
f 30/95/95 35/97/97 31/98/98
f 32/100/99 31/98/98 36/99/100
f 36/99/100 31/98/98 35/97/97
f 33/93/94 29/96/93 36/99/100
f 36/99/100 29/96/93 32/100/99
f 34/104/101 33/101/102 38/103/103
f 38/103/103 33/101/102 37/102/104
f 35/108/105 34/105/106 39/107/107
f 39/107/107 34/105/106 38/106/108
f 36/112/109 35/109/110 40/111/111
f 40/111/111 35/109/110 39/110/112
f 40/116/113 37/113/114 36/115/115
f 36/115/115 37/113/114 33/114/116
f 39/120/117 38/117/118 40/119/119
f 40/119/119 38/117/118 37/118/120
f 44/124/121 41/121/122 43/123/123
f 43/123/123 41/121/122 42/122/124
f 46/128/125 45/125/126 44/127/127
f 44/127/127 45/125/126 41/126/128
f 41/132/129 45/129/130 42/131/131
f 42/131/131 45/129/130 47/130/132
f 43/136/133 42/133/134 48/135/135
f 48/135/135 42/133/134 47/134/136
f 46/140/137 44/137/138 48/139/139
f 48/139/139 44/137/138 43/138/140
f 45/144/141 46/141/142 47/143/143
f 47/143/143 46/141/142 48/142/144
f 52/148/145 49/145/146 51/147/147
f 51/147/147 49/145/146 50/146/148
f 54/152/149 53/149/150 52/151/151
f 52/151/151 53/149/150 49/150/152
f 49/156/153 53/153/154 50/155/155
f 50/155/155 53/153/154 55/154/156
f 51/160/157 50/157/158 56/159/159
f 56/159/159 50/157/158 55/158/160
f 54/164/161 52/161/162 56/163/163
f 56/163/163 52/161/162 51/162/164
f 53/168/165 54/165/166 55/167/167
f 55/167/167 54/165/166 56/166/168
f 60/172/169 57/169/170 59/171/171
f 59/171/171 57/169/170 58/170/172
f 62/176/173 61/173/174 60/175/175
f 60/175/175 61/173/174 57/174/176
f 57/180/177 61/177/178 58/179/179
f 58/179/179 61/177/178 63/178/180
f 59/184/181 58/181/182 64/183/183
f 64/183/183 58/181/182 63/182/184
f 62/188/185 60/185/186 64/187/187
f 64/187/187 60/185/186 59/186/188
f 61/192/189 62/189/190 63/191/191
f 63/191/191 62/189/190 64/190/192
